:FULLY-SPECIFIED
:FORCE-ALL-JOINTS-BE-3DOF
:DEGREES
713
root 5.03039 18.9312 7.31902 -51.0687 -47.0034 71.0214
lfemur -37.4934 3.32701 12.2886
ltibia 85.269 0 0
lfoot 0.897378 -2.21977 0
ltoes 26.7703 0 0
rfemur -13.8253 -11.1909 5.50864
rtibia 44.1172 0 0
rfoot 25.195 4.84501 0
rtoes 6.34652 0 0
lowerback 1.86872 0.942111 -1.26806
upperback -2.1273 1.12478 -1.86994
thorax -3.0937 0.561444 -1.18935
lowerneck -7.00402 -5.89392 -0.40541
upperneck 1.46762 -8.0595 4.20479
head 1.85813 -3.94205 1.09761
lclavicle -3.90224e-14 -4.60597e-15 0
lhumerus -4.64652 -19.0297 28.0143
lradius 65.695 0 0
lwrist 27.7853 0 0
lhand -23.2108 -5.05526 0
lfingers 7.12502 0 0
lthumb 3.23957 24.8998 0
rclavicle -3.90224e-14 -4.60597e-15 0
rhumerus -5.75972 -0.710627 -26.464
rradius 97.2922 0 0
rwrist -7.79906 0 0
rhand -33.4942 -37.3108 0
rfingers 7.12502 0 0
rthumb -6.6908 -787.167 0
714
root 5.00803 18.9036 7.53314 -55.4314 -46.1942 75.5941
lfemur -36.9098 2.74855 11.5922
ltibia 82.9148 0 0
lfoot 0.59114 -2.52054 0
ltoes 26.2199 0 0
rfemur -14.3125 -11.9143 5.1831
rtibia 47.0583 0 0
rfoot 25.2703 4.97972 0
rtoes 7.0564 0 0
lowerback 1.83859 1.20069 -1.17621
upperback -2.13631 1.47505 -1.83526
thorax -3.07712 0.734804 -1.21749
lowerneck -7.03279 -5.96689 -0.429621
upperneck 1.34189 -8.15144 4.16222
head 1.82316 -3.9917 1.08564
lclavicle -3.96891e-14 -5.97322e-15 0
lhumerus -6.68633 -18.8406 29.0563
lradius 65.0451 0 0
lwrist 27.5563 0 0
lhand -23.2093 -5.0052 0
lfingers 7.12502 0 0
lthumb 3.24102 24.9499 0
rclavicle -3.96891e-14 -5.97322e-15 0
rhumerus -4.1183 -0.049622 -27.327
rradius 97.0828 0 0
rwrist -7.77194 0 0
rhand -33.3518 -37.0393 0
rfingers 7.12502 0 0
rthumb -6.55336 -786.9 0
715
root 4.98567 18.8759 7.74726 -59.7941 -45.385 80.1667
lfemur -36.3263 2.17008 10.8959
ltibia 80.5606 0 0
lfoot 0.284901 -2.82131 0
ltoes 25.6696 0 0
rfemur -14.7996 -12.6377 4.85755
rtibia 49.9995 0 0
rfoot 25.3456 5.11443 0
rtoes 7.76627 0 0
lowerback 1.80845 1.45927 -1.08435
upperback -2.14532 1.82532 -1.80058
thorax -3.06054 0.908164 -1.24564
lowerneck -7.06156 -6.03987 -0.453832
upperneck 1.21617 -8.24338 4.11965
head 1.7882 -4.04136 1.07368
lclavicle -4.03558e-14 -7.34047e-15 0
lhumerus -8.72615 -18.6514 30.0984
lradius 64.3952 0 0
lwrist 27.3273 0 0
lhand -23.2078 -4.95515 0
lfingers 7.12502 0 0
lthumb 3.24247 24.9999 0
rclavicle -4.03558e-14 -7.34047e-15 0
rhumerus -2.47689 0.611383 -28.1901
rradius 96.8734 0 0
rwrist -7.74482 0 0
rhand -33.2095 -36.7678 0
rfingers 7.12502 0 0
rthumb -6.41592 -786.632 0
716
root 4.9633 18.8483 7.96138 -64.1568 -44.5758 84.7393
lfemur -35.7427 1.59161 10.1995
ltibia 78.2064 0 0
lfoot -0.021338 -3.12208 0
ltoes 25.1193 0 0
rfemur -15.2868 -13.3612 4.53201
rtibia 52.9406 0 0
rfoot 25.4209 5.24914 0
rtoes 8.47614 0 0
lowerback 1.77832 1.71785 -0.992493
upperback -2.15433 2.17559 -1.76589
thorax -3.04395 1.08152 -1.27378
lowerneck -7.09033 -6.11284 -0.478044
upperneck 1.09045 -8.33531 4.07708
head 1.75323 -4.09101 1.06171
lclavicle -4.10224e-14 -8.70772e-15 0
lhumerus -10.766 -18.4623 31.1404
lradius 63.7453 0 0
lwrist 27.0982 0 0
lhand -23.2063 -4.90509 0
lfingers 7.12502 0 0
lthumb 3.24392 25.05 0
rclavicle -4.10224e-14 -8.70772e-15 0
rhumerus -0.83548 1.27239 -29.0532
rradius 96.664 0 0
rwrist -7.7177 0 0
rhand -33.0671 -36.4963 0
rfingers 7.12502 0 0
rthumb -6.27848 -786.365 0
